<?xml version="1.0" standalone="no"?>
<!DOCTYPE svg PUBLIC "-//W3C//DTD SVG 1.1//EN" "http://www.w3.org/Graphics/SVG/1.1/DTD/svg11.dtd" >
<!--
2013-9-30: Created.
-->
<svg>
<metadata>
Created by iconfont
</metadata>
<defs>

<font id="iconfont" horiz-adv-x="1024" >
  <font-face
    font-family="iconfont"
    font-weight="500"
    font-stretch="normal"
    units-per-em="1024"
    ascent="896"
    descent="-128"
  />
    <missing-glyph />
    
    <glyph glyph-name="x" unicode="x" horiz-adv-x="1001"
d="M281 543q-27 -1 -53 -1h-83q-18 0 -36.5 -6t-32.5 -18.5t-23 -32t-9 -45.5v-76h912v41q0 16 -0.5 30t-0.5 18q0 13 -5 29t-17 29.5t-31.5 22.5t-49.5 9h-133v-97h-438v97zM955 310v-52q0 -23 0.5 -52t0.5 -58t-10.5 -47.5t-26 -30t-33 -16t-31.5 -4.5q-14 -1 -29.5 -0.5
t-29.5 0.5h-32l-45 128h-439l-44 -128h-29h-34q-20 0 -45 1q-25 0 -41 9.5t-25.5 23t-13.5 29.5t-4 30v167h911zM163 247q-12 0 -21 -8.5t-9 -21.5t9 -21.5t21 -8.5q13 0 22 8.5t9 21.5t-9 21.5t-22 8.5zM316 123q-8 -26 -14 -48q-5 -19 -10.5 -37t-7.5 -25t-3 -15t1 -14.5
t9.5 -10.5t21.5 -4h37h67h81h80h64h36q23 0 34 12t2 38q-5 13 -9.5 30.5t-9.5 34.5q-5 19 -11 39h-368zM336 498v228q0 11 2.5 23t10 21.5t20.5 15.5t34 6h188q31 0 51.5 -14.5t20.5 -52.5v-227h-327z" />
    

    
    <glyph glyph-name="health-full" unicode="&#58889;" d="M595.018635-128c-3.404036 4.040563-173.412128 177.729442-510.024275 521.038962C-27.920017 508.527122-28.390493 695.250969 83.942706 810.130277c112.360875 114.879308 294.961133 114.408831 407.87551-1.051653L595.018635 703.525822l103.200419 105.552802c112.914376 115.460485 295.514635 115.930961 407.875509 1.051653 112.333199-114.879308 111.862723-301.603155-1.051653-417.06364A1292368.27548 1292368.27548 0 0 0 595.018635-128z m-37.638126 638.879505h-150.663202v-61.604756h150.635527v-154.039563h60.248676v154.039563h150.635527v61.604756h-150.635527V664.919068H557.380509v-154.039563z"  horiz-adv-x="1190" />

    
    <glyph glyph-name="health" unicode="&#58890;" d="M557.380509 654.92836l-108.15426 110.561993C359.780351 856.956533 215.316369 857.31631 126.562348 766.569682c-88.754021-90.774303-88.394245-238.503945 0.996304-329.8871 251.621939-256.658806 399.545307-407.654109 467.626033-477.450691 70.43311 71.927565 228.181136 233.079627 467.238583 477.395341 89.445898 91.438505 89.805674 239.168147 1.051653 329.94245C974.720901 857.343985 830.256919 856.956533 740.811021 765.490353l-123.209511-125.977019v-128.633829h150.635527v-61.604756h-150.635527v-154.039563H557.380509v154.039563h-150.635527v61.604756h150.635527V654.900685zM595.018635-128c-3.404036 4.040563-173.412128 177.729442-510.024275 521.038962C-27.920017 508.527122-28.390493 695.250969 83.942706 810.130277c112.360875 114.879308 294.961133 114.408831 407.87551-1.051653L595.018635 703.525822l103.200419 105.552802c112.914376 115.460485 295.514635 115.930961 407.875509 1.051653 112.333199-114.879308 111.862723-301.603155-1.051653-417.06364A1292296.098839 1292296.098839 0 0 0 595.018635-128z"  horiz-adv-x="1190" />

    
    <glyph glyph-name="home-full1" unicode="&#58891;" d="M620.469086-124.011789h183.727158c32.471579 0 58.799158 27.136 58.799158 60.631578v363.789474l-0.026947 2.021053h164.055579a63.622737 63.622737 0 0 1 44.355368 109.271579L591.716244 877.999158A63.622737 63.622737 0 0 1 503.194139 878.187789L19.542771 411.890526a63.622737 63.622737 0 0 1 44.193684-109.46021h152.549052l-0.026947-2.021053v-363.789474c0-33.495579 26.327579-60.631579 58.799158-60.631578h183.727158v269.473684h161.68421v-269.473684z"  horiz-adv-x="1104" />

    
    <glyph glyph-name="mall-full" unicode="&#58892;" d="M46.431086 896h1116.3648C1206.213486 795.092114 1228.244114 720.047543 1228.829257 670.837029c0.877714-73.786514-66.852571-156.701257-132.973714-156.701258a206.467657 206.467657 0 0 0-175.045486 97.104458 206.467657 206.467657 0 0 0-175.045486-97.104458 205.999543 205.999543 0 0 0-159.1296 75.103086 205.999543 205.999543 0 0 0-159.1296-75.103086 205.999543 205.999543 0 0 0-159.1296 75.103086 205.999543 205.999543 0 0 0-159.1296-75.103086C44.968229 514.135771 0.029257 608.343771 0.029257 670.837029 0.029257 712.557714 15.506286 787.573029 46.431086 896z m1035.6736-479.992686V-128H127.327086V416.007314h954.7776z m-891.114057 0v-480.021943h827.450514V416.036571H190.990629z"  horiz-adv-x="1228" />

    
    <glyph glyph-name="mall" unicode="&#58893;" d="M1052.017778 415.118222V-113.777778H123.761778V415.118222h928.256z m-866.360889 0v-466.688h804.465778V415.146667H185.656889z m119.068444 132.152889h-4.750222a202.695111 202.695111 0 0 0-39.082667 36.266667c-11.377778-13.767111-24.490667-25.969778-39.082666-36.266667h-4.750222c0.568889-0.711111 1.137778-1.422222 1.763555-2.104889a199.395556 199.395556 0 0 0-112.64-34.645333C43.690667 510.520889 0 602.112 0 662.869333 0 703.431111 15.047111 776.362667 45.112889 881.777778h1085.354667C1172.679111 783.672889 1194.097778 710.712889 1194.666667 662.869333c0.853333-71.736889-64.995556-152.348444-129.28-152.348444a199.708444 199.708444 0 0 0-131.868445 49.550222c3.413333 4.721778 6.712889 9.614222 9.870222 14.592h-24.945777a202.922667 202.922667 0 0 0-23.239111 30.264889c-6.798222-10.808889-14.592-20.963556-23.239112-30.264889h-24.945777c3.128889-4.977778 6.456889-9.870222 9.898666-14.592a199.708444 199.708444 0 0 0-131.896889-49.550222 199.395556 199.395556 0 0 0-112.611555 34.645333l1.735111 2.104889h-4.750222a202.695111 202.695111 0 0 0-39.082667 36.266667c-11.377778-13.767111-24.519111-25.969778-39.082667-36.266667h-4.750222l1.735111-2.104889a199.395556 199.395556 0 0 0-112.611555-34.645333 199.395556 199.395556 0 0 0-112.611556 34.645333l1.735111 2.104889zM56.888889 662.869333c0-43.633778 31.857778-95.459556 49.294222-95.459555A143.36 143.36 0 0 1 217.059556 619.804444l43.832888 53.020445 43.832889-53.020445a143.36 143.36 0 0 1 110.876445-52.337777 143.36 143.36 0 0 1 110.876444 52.337777l43.832889 53.020445 43.832889-53.020445a143.36 143.36 0 0 1 110.876444-52.337777c50.062222 0 95.687111 25.827556 122.026667 67.754666l48.156445 76.714667 48.184888-76.714667a143.815111 143.815111 0 0 1 121.998223-67.783111c29.496889 0 72.931556 51.854222 72.391111 94.776889-0.426667 33.479111-15.36 88.490667-45.226667 162.702222H88.376889C67.328 746.581333 56.888889 691.683556 56.888889 662.869333z"  horiz-adv-x="1194" />

    
    <glyph glyph-name="home" unicode="&#58894;" d="M804.080484-70.119139c2.31739 0 4.904244 2.640747 4.904245 6.736599v363.776358l-1.778462 55.913774h219.693974a9.727649 9.727649 0 0 1 6.790492 16.706766L554.017921 839.348703a9.727649 9.727649 0 0 1-13.554038 0L56.856898 373.095197a9.727649 9.727649 0 0 1 6.736599-16.760659h208.214809l-1.778462-55.617363v-364.072769c0-4.095852 2.559908-6.736599 4.904244-6.736599h129.82774v269.463969h269.46397v-269.463969h129.82774z m58.743146 372.533937v-53.892794l0.053893-311.904544c0-33.494371-26.32663-60.629393-58.797039-60.629393h-183.720534v269.463969h-161.678381v-269.463969h-183.720535c-32.470408 0-58.797038 27.135022-58.797038 60.629393V248.522004l0.026947 53.892794-53.865848 1.72457c0-0.538928-32.901551-1.131749-98.704652-1.72457a63.620443 63.620443 0 0 0-44.165144 109.456265L503.089231 878.151515a63.620443 63.620443 0 0 0 88.518914-0.188625l479.645865-466.280452a63.620443 63.620443 0 0 0-44.353769-109.26764H862.82363z"  horiz-adv-x="1104" />

    
    <glyph glyph-name="mine" unicode="&#58895;" d="M526.628571 369.371429a234.057143 234.057143 0 1 1 0 468.114285 234.057143 234.057143 0 0 1 0-468.114285zM0-128c65.974857 219.691886 276.772571 380.342857 526.628571 380.342857s460.653714-160.650971 526.628572-380.342857h-63.722057C925.608229 58.894629 742.517029 193.828571 526.628571 193.828571S127.648914 58.894629 63.722057-128H0z m526.628571 438.857143c-161.5872 0-292.571429 130.984229-292.571428 292.571428S365.041371 896 526.628571 896s292.571429-130.984229 292.571429-292.571429-130.984229-292.571429-292.571429-292.571428z"  horiz-adv-x="1053" />

    
    <glyph glyph-name="mine-full" unicode="&#58896;" d="M558.545455 399.515152a248.242424 248.242424 0 1 1 0 496.484848 248.242424 248.242424 0 0 1 0-496.484848zM0-128c69.973333 233.006545 293.546667 403.393939 558.545455 403.393939s488.572121-170.387394 558.545454-403.393939H0z"  horiz-adv-x="1117" />

    
    <glyph glyph-name="tel-book-full" unicode="&#58897;" d="M384.2048 302.4384h357.9904c0.128-2.6624 0.2048-5.3504 0.2048-8.0384 0-91.52-79.872-166.4-179.2-166.4s-179.2 74.88-179.2 166.4c0 2.688 0.0768 5.376 0.2048 8.0384z m409.2416 0h70.2464l-42.6496 214.8096C807.5776 585.0368 750.7968 640 694.2464 640h-256c-56.5504 0-113.3056-54.9632-126.7712-122.752L268.8 302.4384h64.1536A209.7664 209.7664 0 0 1 332.8 294.4c0-120.576 103.5008-217.6 230.4-217.6s230.4 97.024 230.4 217.6c0 2.688-0.0512 5.376-0.1536 8.0384zM153.6 25.6v25.6H89.6a38.4 38.4 0 0 0 0 76.8H153.6v204.8H89.6a38.4 38.4 0 0 0 0 76.8H153.6v204.8H89.6a38.4 38.4 0 0 0 0 76.8H153.6V742.4a153.6 153.6 0 0 0 153.6 153.6h512a153.6 153.6 0 0 0 153.6-153.6v-716.8a153.6 153.6 0 0 0-153.6-153.6H307.2a153.6 153.6 0 0 0-153.6 153.6z m435.2 473.6V563.2h-51.2v-64h-64v-51.2H537.6V384h51.2v64h64v51.2H588.8z m182.016 8.064l30.5152-153.6256H331.1616l30.5152 153.6256C370.688 552.6272 408.064 588.8 438.272 588.8h256c30.208 0 67.584-36.1728 76.5696-81.536z"  horiz-adv-x="1024" />

    
    <glyph glyph-name="tel-book" unicode="&#58898;" d="M153.6 25.6v25.6H89.6a38.4 38.4 0 0 0 0 76.8h64v204.8H89.6a38.4 38.4 0 0 0 0 76.8h64v204.8H89.6a38.4 38.4 0 0 0 0 76.8h64V742.4a153.6 153.6 0 0 0 153.6 153.6h512a153.6 153.6 0 0 0 153.6-153.6v-716.8a153.6 153.6 0 0 0-153.6-153.6h-512a153.6 153.6 0 0 0-153.6 153.6z m51.2 76.8v-76.8a102.4 102.4 0 0 1 102.4-102.4h512a102.4 102.4 0 0 1 102.4 102.4V742.4a102.4 102.4 0 0 1-102.4 102.4h-512a102.4 102.4 0 0 1-102.4-102.4v-102.4H89.6a12.8 12.8 0 0 1 0 25.6h115.2v-307.2H89.6a12.8 12.8 0 1 1 0 25.6h115.2v-307.2H89.6a12.8 12.8 0 1 1 0 25.6h115.2z m588.6464 200.0384c0.1024-2.6624 0.1536-5.3504 0.1536-8.0384 0-120.576-103.5008-217.6-230.4-217.6s-230.4 97.024-230.4 217.6c0 2.688 0.0512 5.376 0.1536 8.0384H268.8l42.6752 214.8096C324.9408 585.0368 381.696 640 438.2464 640h256c56.576 0 113.3312-54.9632 126.7968-122.752l42.6496-214.8096h-70.2464z m-51.2512 0H384.2048a156.5952 156.5952 0 0 1-0.2048-8.0384c0-91.52 79.872-166.4 179.2-166.4s179.2 74.88 179.2 166.4c0 2.688-0.0768 5.376-0.2048 8.0384z m28.6208 204.8256C761.8048 552.6272 724.4544 588.8 694.272 588.8h-256c-30.208 0-67.584-36.1728-76.5952-81.536l-30.5152-153.6256h470.1696l-30.5152 153.6256zM537.6 563.2v-179.2h51.2v179.2h-51.2z m115.2-64h-179.2v-51.2h179.2v51.2z"  horiz-adv-x="1024" />

    
    <glyph glyph-name="news" unicode="&#58899;" d="M484.704 70.144c29.92-4.064 60.416-6.144 91.296-6.144 285.76 0 512 175.936 512 384S861.76 832 576 832 64 656.064 64 448c0-96.864 48.736-189.184 136.64-260.448 29.344-23.744 40.32-72.576 49.92-201.504 141.12 65.248 202.816 88.32 234.144 84.096zM576 0c-34.08 0-67.456 2.304-99.936 6.72-16.864 2.304-111.296-37.152-283.264-118.368-9.28 156.32-20.064 239.488-32.416 249.472C61.056 218.336 0 327.616 0 448 0 695.424 257.888 896 576 896s576-200.576 576-448-257.888-448-576-448zM256 352a96 96 0 1 1 0 192 96 96 0 0 1 0-192z m320 0a96 96 0 1 1 0 192 96 96 0 0 1 0-192z m320 0a96 96 0 1 1 0 192 96 96 0 0 1 0-192z"  horiz-adv-x="1152" />

    
    <glyph glyph-name="urine" unicode="&#58900;" d="M309.388549 706.800941V514.509804h-100.392157V709.411137l-107.881412-107.90149L30.117647 672.50698 253.610667 896 492.122353 673.731765l-68.447373-73.446902-114.286431 106.516078zM572.235294 715.294118C339.365647 715.294118 150.588235 526.516706 150.588235 293.647059a420.562824 420.562824 0 0 1 32.727843-163.137255l227.950432 227.97051 129.505882-129.505883 151.592157 151.572079-120.209569 120.209568h301.176471v-301.17647l-117.057255 117.057255-215.481725-215.481726-129.505883 129.505883-182.151529-182.131451C305.613804-58.347922 430.802824-128 572.235294-128c232.869647 0 421.647059 188.777412 421.647059 421.647059S805.104941 715.294118 572.235294 715.294118z"  horiz-adv-x="1024" />

    
    <glyph glyph-name="blood-sugar" unicode="&#58901;" d="M728.615385 325.001846c108.760615 0 196.923077 88.162462 196.923077 196.923077 0 72.507077-62.444308 193.910154-187.332924 364.228923C600.536615 715.835077 531.692308 594.432 531.692308 521.924923c0-108.760615 88.162462-196.923077 196.923077-196.923077zM443.076923-114.077538c-195.761231 0-354.461538 158.700308-354.461538 354.461538C88.615385 370.884923 212.519385 589.430154 460.347077 896 685.154462 589.430154 797.538462 370.884923 797.538462 240.384c0-195.761231-158.700308-354.461538-354.461539-354.461538zM240.817231 319.586462c-31.901538-115.298462 0.531692-214.212923 95.921231-293.218462l25.127384 30.306462c-83.574154 69.257846-110.788923 152.221538-83.081846 252.376615l-37.966769 10.535385z"  horiz-adv-x="1024" />

    
    <glyph glyph-name="weight" unicode="&#58902;" d="M0 163.048727c0-160.535273 130.257455-290.722909 290.909091-290.722909 160.674909 0 290.909091 130.187636 290.909091 290.722909C581.818182 323.630545 451.584 453.818182 290.909091 453.818182 130.257455 453.818182 0 323.630545 0 163.048727zM1066.821818 11.636364H445.835636c-79.104 0.093091-143.220364 62.557091-143.290181 139.636363v116.363637h47.825454v-116.363637c0.046545-51.386182 42.798545-93.044364 95.534546-93.090909h620.916363c52.759273 0.046545 95.511273 41.704727 95.534546 93.090909v116.363637H1210.181818v-116.363637c-0.069818-77.079273-64.232727-139.589818-143.36-139.636363zM1068.055273 151.272727H444.648727c-78.452364 0.093091-142.033455 63.022545-142.103272 140.683637V755.339636C302.638545 832.977455 366.196364 895.906909 444.648727 896h623.383273C1146.507636 895.906909 1210.088727 832.977455 1210.181818 755.339636v-463.383272c-0.093091-77.684364-63.674182-140.590545-142.126545-140.683637zM594.990545 504.040727l14.522182 23.877818c25.437091 41.914182 75.124364 67.933091 129.582546 67.933091a163.607273 163.607273 0 0 0 73.611636-17.175272 139.450182 139.450182 0 0 0 52.084364-44.730182l15.034182-21.806546 152.715636 127.930182-14.731636 16.965818c-32.139636 36.980364-74.007273 67.560727-121.088 88.482909a385.931636 385.931636 0 0 1-157.672728 32.907637c-56.087273 0.046545-111.476364-11.869091-162.071272-34.909091-48.221091-22.178909-90.624-54.481455-122.554182-93.416727l-13.800728-16.896 154.368-129.163637zM740.352 686.545455c19.269818 0 34.909091-13.032727 34.909091-29.114182v-58.135273c0-16.081455-15.639273-29.114182-34.909091-29.114182s-34.909091 13.032727-34.909091 29.114182v58.135273c0 16.081455 15.639273 29.114182 34.909091 29.114182z"  horiz-adv-x="1210" />

    
    <glyph glyph-name="dietitian" unicode="&#58903;" d="M136.533333 896h750.933334a136.533333 136.533333 0 0 0 136.533333-136.533333v-750.933334a136.533333 136.533333 0 0 0-136.533333-136.533333H136.533333a136.533333 136.533333 0 0 0-136.533333 136.533333V759.466667a136.533333 136.533333 0 0 0 136.533333 136.533333zM477.866667 192.597333c22.545067 69.358933 57.4464 121.105067 104.738133 155.2384 48.725333 35.140267 123.153067 26.146133 167.338667 27.460267-48.0256-17.681067-85.265067-36.829867-124.706134-61.5936-5.0688-3.1744-21.896533-13.909333-25.156266-15.9744-25.002667-15.752533-65.6384-50.722133-122.2144-105.130667z m281.070933 167.799467c14.609067-83.6096-50.688-133.512533-104.328533-147.234133-33.621333-8.584533-83.797333-14.984533-150.5792-19.2 48.349867 45.841067 83.473067 75.6736 105.1648 89.326933 3.310933 2.065067 20.1216 12.8 25.1392 15.9744 39.2704 24.661333 76.202667 43.5712 124.603733 61.1328zM529.066667 614.365867v-187.733334a102.434133 102.434133 0 0 0-93.866667-102.058666v-273.408c-2.1504-21.9136-13.533867-32.8704-34.133333-32.8704s-31.982933 10.9568-34.133334 32.8704v273.408a102.434133 102.434133 0 0 0-93.866666 102.058666v187.733334c0 34.269867 16.827733 64.597333 42.666666 83.182933v-168.516267a17.066667 17.066667 0 0 1 34.133334 0V713.540267c0 3.1744 5.358933 11.793067 17.066666 11.793066 7.816533 0 13.499733-3.925333 17.066667-11.793066v-184.507734a17.066667 17.066667 0 0 1 34.133333 0V713.540267c3.2256 7.8336 8.6016 11.758933 16.093867 11.758933 11.246933 0 18.039467-7.850667 18.039467-11.758933v-184.507734a17.066667 17.066667 0 0 1 34.133333 0v168.516267a102.2976 102.2976 0 0 0 42.666667-83.182933z"  horiz-adv-x="1024" />

    
    <glyph glyph-name="hotline" unicode="&#58904;" d="M136.533333 896h750.933334a136.533333 136.533333 0 0 0 136.533333-136.533333v-750.933334a136.533333 136.533333 0 0 0-136.533333-136.533333H136.533333a136.533333 136.533333 0 0 0-136.533333 136.533333V759.466667a136.533333 136.533333 0 0 0 136.533333 136.533333zM654.6944 236.373333c-50.8928 26.606933-105.7792 68.317867-164.625067 125.1328-58.845867 56.832-102.4512 110.216533-130.816 160.170667a85.333333 85.333333 0 0 1 5.085867 127.317333 85.333333 85.333333 0 0 1-140.714667-35.84c-20.974933-34.286933 19.5584-180.258133 182.9888-338.056533 163.4304-157.832533 310.715733-193.2288 344.234667-171.0592a85.333333 85.333333 0 1 1-96.1536 132.334933z"  horiz-adv-x="1024" />

    
    <glyph glyph-name="friends" unicode="&#58905;" d="M136.533333 896h750.933334a136.533333 136.533333 0 0 0 136.533333-136.533333v-750.933334a136.533333 136.533333 0 0 0-136.533333-136.533333H136.533333a136.533333 136.533333 0 0 0-136.533333 136.533333V759.466667a136.533333 136.533333 0 0 0 136.533333 136.533333zM397.482667 363.025067c-4.9152-1.2288-9.7792-2.577067-14.574934-4.061867a129.2288 129.2288 0 0 0-74.513066 117.128533v51.712A129.262933 129.262933 0 0 0 437.6576 657.066667a129.262933 129.262933 0 0 0 129.28-129.262934v-51.712a129.194667 129.194667 0 0 0-61.064533-109.824 252.945067 252.945067 0 0 1-20.8384 2.952534c-1.4848-21.418667-3.703467-46.1824-0.597334-46.660267 115.643733-18.1248 203.1104-102.212267 203.1104-203.2128-201.181867 0-337.937067-2.0992-499.831466 0 0 102.9632 90.914133 188.3648 209.937066 204.202667 4.078933 0.512 1.877333 20.206933-0.170666 39.4752z m201.352533-33.8432a168.260267 168.260267 0 0 0 62.464 21.009066c2.030933 0.290133 1.501867 8.362667 0.546133 17.698134a78.0288 78.0288 0 0 0-54.408533 74.376533v31.214933a78.011733 78.011733 0 0 0 156.023467 0v-31.214933a78.08 78.08 0 0 0-50.0224-72.840533c-0.7168-10.274133-1.245867-19.575467 0.238933-19.8144C783.479467 338.670933 836.266667 287.931733 836.266667 226.986667c-55.1936 0-102.365867-0.256-146.568534-0.4096a257.4336 257.4336 0 0 1-90.862933 102.6048z"  horiz-adv-x="1024" />

    
    <glyph glyph-name="doctor" unicode="&#58906;" d="M136.533333 896h750.933334a136.533333 136.533333 0 0 0 136.533333-136.533333v-750.933334a136.533333 136.533333 0 0 0-136.533333-136.533333H136.533333a136.533333 136.533333 0 0 0-136.533333 136.533333V759.466667a136.533333 136.533333 0 0 0 136.533333 136.533333zM731.528533 93.866667H529.066667v34.2528c28.672 16.008533 60.16 188.347733 83.541333 187.613866C703.573333 296.004267 768 241.646933 768 138.171733 766.941867 111.0016 754.8928 93.866667 731.528533 93.866667z m-93.354666 329.3696C617.745067 350.327467 564.736 298.666667 502.749867 298.666667c-62.327467 0-115.3536 52.0704-135.424 124.945066-9.3184 4.625067-20.7872 15.035733-25.088 41.642667-5.376 34.7136 14.336 43.195733 14.336 43.195733 1.4336 0 2.8672-1.143467 4.3008-3.464533a65.655467 65.655467 0 0 0 15.394133 25.070933c25.4464 26.999467 72.362667 41.2672 128.9728 41.642667 51.234133 0.375467 87.057067-3.4816 123.5968-40.874667 6.434133-6.5536 12.526933-16.981333 15.7696-27.374933 1.774933 3.089067 3.566933 5.000533 5.358933 4.625067 0 0 20.0704-8.482133 14.677334-43.195734-4.983467-26.999467-16.7936-37.0176-26.4704-41.642666z m-131.515734-295.253334V93.866667c-92.4672 0-157.0816 0.3584-212.411733 0-23.773867 0-36.7616 17.066667-38.2464 43.741866 0 103.082667 67.584 157.5936 163.0208 176.878934 25.258667 1.109333 57.924267-170.5472 87.637333-186.504534zM506.299733 742.4c79.104 0 158.941867-42.274133 159.300267-42.6496v-140.9024s-46.045867 51.9168-155.221333 51.9168c-109.909333 0-155.221333-51.541333-155.221334-51.541333v140.9024S423.850667 742.4 506.299733 742.4z m46.779734-76.3904V684.544h-34.167467v34.116267h-18.193067v-34.116267h-33.792v-18.5344h33.792v-34.116267h18.193067v34.116267h34.167467z"  horiz-adv-x="1024" />

    
    <glyph glyph-name="add-img" unicode="&#58907;" d="M554.082192 426.082192V896h-84.164384v-469.917808H0v-84.164384h469.917808V-128h84.164384V341.917808H1024v84.164384H554.082192z"  horiz-adv-x="1024" />

    
    <glyph glyph-name="no-list" unicode="&#58908;" d="M512 384m-512 0a512 512 0 1 1 1024 0 512 512 0 1 1-1024 0ZM141.940594 30.162376c93.214416-97.452356 224.55002-158.162376 370.059406-158.162376 150.872713 0 286.49695 65.252119 380.19802 169.071525V587.431287L745.40103 733.782178H223.049505a81.108911 81.108911 0 0 1-81.108911-81.108911v-622.510891zM324.435644 54.49505h395.40594v-20.277228H324.435644zM324.435644 115.326733h395.40594v-20.277228H324.435644zM324.435644-6.336634h395.40594v-20.277227H324.435644zM735.049505 713.50495H223.049505a60.831683 60.831683 0 0 1-60.831683-60.831683v-642.575208a518.43802 518.43802 0 0 0-20.277228 20.064317V652.673267a81.108911 81.108911 0 0 0 81.108911 81.108911h522.351525L892.19802 587.431287v-546.359762a506.565703 506.565703 0 0 0-20.277228-21.20998V569.485941h-45.623762a91.247525 91.247525 0 0 0-91.247525 91.247524V713.50495z m20.277228-18.239366v-34.532119a70.970297 70.970297 0 0 1 70.970297-70.970297h34.846416L755.326733 695.265584zM114.120238 746.394614L50.267248 795.688554l-6.194694-8.019643 63.852991-49.293941zM162.217822 776.131168l-31.206654 73.484674-9.337663-3.964198 31.216792-73.484674zM94.13703 705.252119H11.284277v-10.138614h82.852753zM380.19802 384m-25.346535 0a25.346535 25.346535 0 1 1 50.693069 0 25.346535 25.346535 0 1 1-50.693069 0ZM664.079208 384m-25.346535 0a25.346535 25.346535 0 1 1 50.69307 0 25.346535 25.346535 0 1 1-50.69307 0ZM666.745663 460.941941c1.987168-11.000396 8.354218-19.608079 19.425585-26.046099 10.777347-6.275802 22.386059-6.275802 35.414178 0.162217l4.491406-9.084198c-15.958178-7.887842-31.166099-7.887842-45.005307 0.162218-13.555327 7.887842-21.757465 18.969347-24.302258 33.001188l9.976396 1.804674zM492.158733 265.347802c6.721901-15.086257 16.627327-23.126178 29.432396-23.126178 12.774653 0 22.82202 7.989228 29.888633 23.024792l-9.175445 4.319049c-5.535683-11.791208-12.348832-17.205228-20.713188-17.205227-8.323802 0-14.944317 5.363327-20.165703 17.11398l-9.266693-4.126416zM381.526178 460.941941c-1.987168-11.000396-8.354218-19.608079-19.425584-26.046099-10.787485-6.275802-22.396198-6.275802-35.414178 0.162217l-4.491406-9.084198c15.968317-7.887842 31.166099-7.887842 45.005307 0.162218 13.555327 7.887842 21.767604 18.969347 24.312396 33.001188l-9.986535 1.804674z"  horiz-adv-x="1024" />

    
    <glyph glyph-name="head-user" unicode="&#58909;" d="M625.487448 183.860966v64.971034c86.157241 48.869517 156.389517 170.760828 156.389518 292.722759C781.876966 737.28 781.876966 896 547.310345 896S312.743724 737.31531 312.743724 541.519448c0-121.926621 70.267586-243.817931 156.389517-292.722758v-64.971035C203.881931 162.039172 0 30.75531 0-128h1094.62069c0 158.72-203.881931 290.039172-469.133242 311.860966z"  horiz-adv-x="1094" />

    
    <glyph glyph-name="list-collect" unicode="&#58910;" d="M541.923475 24.419046L299.016286-103.348997A75.849239 75.849239 0 0 0 188.921115-23.32805l46.38181 270.516312-216.549578 211.088433a62.044678 62.044678 0 0 0 34.39763 105.809689l299.263174 43.499538 121.472556 246.130782a75.849239 75.849239 0 0 0 136.035611 0l121.434632-246.130782 271.616126-39.441604a75.849239 75.849239 0 0 0 42.020478-129.398802l-196.525379-191.557254 46.419735-270.516312a75.849239 75.849239 0 0 0-110.057246-79.945098l-242.945114 127.730119z"  horiz-adv-x="1099" />

    
    <glyph glyph-name="head-set" unicode="&#58911;" d="M257.623415-48.452683a496.64 496.64 0 0 0-95.032195 74.826927c0.499512 2.697366 1.198829 5.394732 2.072975 8.042146a172.731317 172.731317 0 0 1-128.22478 222.083122 69.057561 69.057561 0 0 0-4.420683 1.098927 496.315317 496.315317 0 0 0-14.935415 124.603317c0.849171 0.499512 1.748293 0.949073 2.622439 1.42361a172.731317 172.731317 0 0 1 66.360195 247.683122 68.732878 68.732878 0 0 0-0.249756 0.39961A496.565073 496.565073 0 0 0 164.339512 732.95922a172.731317 172.731317 0 0 1 221.80839 128.049951 496.565073 496.565073 0 0 0 126.951025 17.408l0.22478-0.424586A172.731317 172.731317 0 0 1 761.006829 811.582439a69.182439 69.182439 0 0 0 2.547512 1.573463c36.963902-20.979512 70.606049-46.354732 100.451903-75.251512a68.133463 68.133463 0 0 0-1.248781-4.370731 172.731317 172.731317 0 0 1 128.199805-222.083122c2.747317-0.574439 5.419707-1.323707 7.992195-2.22283 10.489756-38.662244 16.408976-78.823024 17.283122-119.708097a68.058537 68.058537 0 0 0-8.541658-5.194927 172.731317 172.731317 0 0 1-66.360195-247.683122c2.372683-3.671415 4.345756-7.492683 5.919219-11.363902a496.390244 496.390244 0 0 0-70.830829-93.208976 68.033561 68.033561 0 0 0-13.162146 2.847219 172.731317 172.731317 0 0 1-222.058147-128.22478c-0.974049-4.470634-2.347707-8.741463-4.096-12.812488a496.390244 496.390244 0 0 0-116.136585-14.73561 68.033561 68.033561 0 0 0-6.893268 10.814439 172.731317 172.731317 0 0 1-247.708098 66.385171c-2.822244-1.848195-5.74439-3.446634-8.741463-4.820293z m207.372487 234.246244a199.804878 199.804878 0 1 1 103.399025 385.998049 199.804878 199.804878 0 0 1-103.399025-385.998049z"  horiz-adv-x="1024" />

    
    <glyph glyph-name="list-deal" unicode="&#58912;" d="M944 5.568C944-68.096 882.816-128 807.584-128H216.416C141.216-128 80-68.096 80 5.568V762.432C80 836.096 141.184 896 216.416 896h591.168C882.784 896 944 836.096 944 762.432v-756.864zM848 756.224C848 780.352 827.936 800 803.2 800H220.8C196.096 800 176 780.352 176 756.224v-744.448C176-12.384 196.096-32 220.8-32h582.4c24.736 0 44.8 19.616 44.8 43.776V756.224zM299.968 64a29.856 29.856 0 0 0-13.728 3.296c-13.44 6.944-18.24 22.528-10.624 34.88 119.904 194.112 166.24 187.456 181.76 185.152 11.296-1.6 31.232-8.832 38.08-39.168 5.824-26.048 7.488-52.352 8.832-73.472 0.32-4.576 0.64-9.728 1.024-14.72l20.224 20.224c41.664 42.112 67.04 67.392 98.88 60.544 27.424-5.856 35.776-33.024 38.528-41.92 4.608-14.944 4.64-28.864 3.136-40.64 4.16 1.632 8.896 3.584 14.304 5.824 14.016 5.888 30.656 0.192 37.12-12.672 6.368-12.864 0.192-28.032-13.92-33.888-44.576-18.528-68.704-27.616-87.744-13.28-16.8 12.576-12.032 31.072-8.896 43.36 2.944 11.232 6.208 24 2.08 37.44l-0.16 0.576c-11.04-8.608-27.712-25.44-41.792-39.68l-22.528-22.528c-11.968-11.776-36.736-36.352-64.416-27.104-27.52 8.96-29.312 36.896-31.744 75.52-1.152 18.176-2.464 38.528-6.24 58.56-25.792-20.64-75.072-84.16-117.76-153.312a28.64 28.64 0 0 0-24.416-12.992zM240 576V640h512v-64H240z m0-176v64h416v-64H240z"  horiz-adv-x="1024" />

    
    <glyph glyph-name="list-date" unicode="&#58913;" d="M17.655172-60.910345c0-21.821793 28.248276-49.434483 52.047449-49.434483h884.594758c23.799172 0 52.047448 27.61269 52.047449 49.434483V581.737931H17.655172v-642.648276z m364.261518 494.344828H653.241379v-85.910069l-135.662345-300.738207h-90.465103l135.697655 300.738207h-180.894896v85.874758z m572.380689 363.696551h-156.071724V896h-104.094896v-98.868966H329.869241V896H225.809655v-98.868966H69.702621C45.903448 797.131034 17.655172 769.447724 17.655172 747.696552V648.827586h988.689656V737.809655c0 21.786483-13.629793 59.321379-52.047449 59.321379z"  horiz-adv-x="1024" />

    
    <glyph glyph-name="knowledge" unicode="&#58914;" d="M0 807.17913C111.34887 866.393043 221.317565 896 329.906087 896s218.557217-33.569391 329.906087-100.708174V-128c-103.334957 59.213913-211.567304 88.82087-324.652522 88.82087S110.32487-68.786087 0-128V807.17913z m720.361739 0C831.710609 866.393043 941.679304 896 1050.267826 896S1268.869565 862.430609 1380.173913 795.291826V-128c-103.290435 59.213913-211.567304 88.82087-324.652522 88.82087s-224.834783-29.606957-335.159652-88.82087V807.17913zM185.477565 574.775652c29.696 26.089739 83.478261 40.114087 160.990609 40.114087 77.467826 0 131.294609-14.024348 160.946087-40.069565l20.079304-17.630609 30.319305 46.703305-20.034783 17.630608C497.485913 656.784696 433.864348 673.391304 346.423652 673.391304c-87.440696 0-151.106783-16.606609-191.309913-51.867826l-20.079304-17.630608 30.274782-46.747827 20.123826 17.675131z m720.361739 0c29.696 26.089739 83.478261 40.114087 160.990609 40.114087 77.467826 0 131.294609-14.024348 160.946087-40.069565l20.123826-17.630609 30.274783 46.703305-20.034783 17.630608C1217.847652 656.784696 1154.226087 673.391304 1066.785391 673.391304c-87.440696 0-151.106783-16.606609-191.309913-51.867826l-20.079304-17.630608 30.274783-46.747827 20.123826 17.675131z m-720.361739-178.086956c29.696 26.089739 83.478261 40.114087 160.990609 40.114087 77.467826 0 131.294609-14.024348 160.946087-40.069566l20.079304-17.630608 30.319305 46.703304-20.034783 17.630609C497.485913 478.697739 433.864348 495.304348 346.423652 495.304348c-87.440696 0-151.106783-16.606609-191.309913-51.867826l-20.079304-17.630609 30.274782-46.747826 20.123826 17.67513z m720.361739 0c29.696 26.089739 83.478261 40.114087 160.990609 40.114087 77.467826 0 131.294609-14.024348 160.946087-40.069566l20.123826-17.630608 30.274783 46.703304-20.034783 17.630609C1217.847652 478.697739 1154.226087 495.304348 1066.785391 495.304348c-87.440696 0-151.106783-16.606609-191.309913-51.867826l-20.079304-17.630609 30.274783-46.747826 20.123826 17.67513z m-720.361739-178.086957c29.696 26.089739 83.478261 40.114087 160.990609 40.114087 77.467826 0 131.294609-14.024348 160.946087-40.069565l20.079304-17.630609 30.319305 46.703305-20.034783 17.630608C497.485913 300.610783 433.864348 317.217391 346.423652 317.217391c-87.440696 0-151.106783-16.606609-191.309913-51.867826l-20.079304-17.630608 30.274782-46.747827 20.123826 17.675131z m720.361739 0c29.696 26.089739 83.478261 40.114087 160.990609 40.114087 77.467826 0 131.294609-14.024348 160.946087-40.069565l20.123826-17.630609 30.274783 46.703305-20.034783 17.630608C1217.847652 300.610783 1154.226087 317.217391 1066.785391 317.217391c-87.440696 0-151.106783-16.606609-191.309913-51.867826l-20.079304-17.630608 30.274783-46.747827 20.123826 17.675131z"  horiz-adv-x="1380" />

    
    <glyph glyph-name="list-right" unicode="&#58916;" d="M690.5856 384.36864L242.8928 832.06144 306.83136 896l479.68256-479.6416 31.9488-31.98976-511.5904-511.67232L242.8928-63.2832l447.6928 447.6928z"  horiz-adv-x="1024" />

    
    <glyph glyph-name="list-report" unicode="&#58917;" d="M960 768a64 64 0 0 1-64 64H128a64 64 0 0 1-64-64v-768a64 64 0 0 1 64-64h503.2L960 286.848V768z m64-506.464L658.944-128H128a128 128 0 0 0-128 128V768a128 128 0 0 0 128 128h768a128 128 0 0 0 128-128v-506.464z m-383.808-328.32V282.56h330.24l-330.24-349.28zM211.2 608V672h602.976v-64H211.2z m0-224v64h602.976v-64H211.2z m-3.2-224v64H544v-64H208z"  horiz-adv-x="1024" />

    
    <glyph glyph-name="list-poto" unicode="&#58918;" d="M958.683429 896H211.602286C94.902857 896 0 801.426286 0 685.165714v-602.331428C0-33.462857 94.902857-128 211.602286-128h747.081143C1075.382857-128 1170.285714-33.426286 1170.285714 82.834286V685.165714C1170.139429 801.462857 1075.236571 896 958.683429 896zM211.602286 835.693714h747.081143c83.382857 0 151.076571-67.474286 151.076571-150.528v-120.064l-362.898286-334.848-284.452571 346.331429-401.92-331.300572V685.165714c0 83.017143 67.766857 150.528 151.113143 150.528zM822.857143 457.142857c70.582857 0 128 57.380571 128 128S893.44 713.142857 822.857143 713.142857 694.857143 655.762286 694.857143 585.142857s57.417143-128 128-128z"  horiz-adv-x="1170" />

    
    <glyph glyph-name="search" unicode="&#58919;" d="M680.082286 164.205714c-158.061714-131.913143-393.508571-123.684571-541.915429 24.685715-157.110857 157.110857-157.110857 411.830857 0 568.941714 157.110857 157.110857 411.794286 157.110857 568.941714 0 148.370286-148.406857 156.598857-383.853714 24.685715-541.915429l259.766857-259.730285-51.748572-51.748572-259.730285 259.766857z m-24.722286 76.434286A329.142857 329.142857 0 1 1 189.878857 706.121143 329.142857 329.142857 0 0 1 655.36 240.64z"  horiz-adv-x="1024" />

    
    <glyph glyph-name="question" unicode="&#58920;" d="M536.704 150.336H366.976v83.36c0 47.232 9.76 88.704 29.568 123.904 19.392 34.496 52.576 69.44 99.52 105.568 40.256 30.784 68.48 59.072 84.64 84.224 15.04 23.424 22.624 50.496 22.624 81.888 0 30.848-10.56 54.944-32.32 74.56-22.24 19.936-53.344 30.24-94.848 30.24-68.704 0-128.672-25.6-181.536-77.888L240 602.112v216.64l15.04 9.312C328.16 873.28 407.744 896 493.152 896c86.4 0 156.864-23.04 209.92-69.6C756.8 779.168 784 716.704 784 641.28c0-51.904-12.32-99.584-36.992-142.496-24-41.824-63.2-84.672-117.312-128.928-39.296-32.416-65.344-57.792-77.504-74.976-9.952-14.08-15.488-35.936-15.488-66.016v-78.56z m-85.44-62.304c29.76 0 56.224-10.624 77.6-31.232a103.776 103.776 0 0 0 32.768-76.8c0-30.176-11.2-56.576-32.928-77.216a109.6 109.6 0 0 0-77.44-30.784 108.704 108.704 0 0 0-76.096 30.336c-21.888 20.48-33.088 47.04-33.088 77.696 0 30.08 11.04 56.448 32.448 77.088a107.84 107.84 0 0 0 76.704 30.912z"  horiz-adv-x="1024" />

    
    <glyph glyph-name="sports" unicode="&#58921;" d="M257.740456 828.517807A509.64412 509.64412 0 0 0 511.999317 895.999317a510.633986 510.633986 0 0 0 377.002164-165.546446c-122.333704-113.800382-179.950693-264.294048-171.349105-448.886868 5.119993-110.113987 35.566886-215.10798 91.033479-314.913713A509.678254 509.678254 0 0 0 511.999317-127.999317a509.609987 509.609987 0 0 0-279.142027 82.739089c109.94332 137.011017 168.959775 285.422553 175.957098 444.825007 7.78239 175.513366-43.007943 319.282774-151.073932 428.953028zM193.979475 785.270932c101.683064-95.982805 148.275002-222.48077 141.209411-382.122158-6.314658-143.018476-60.040453-277.162297-162.133117-402.909329A510.770519 510.770519 0 0 0 0 384c0 162.57685 75.775899 307.472657 193.979475 401.270932z m744.447007-117.759843A509.609987 509.609987 0 0 0 1023.998635 384c0-142.881943-58.538589-272.110571-152.91713-364.987247-44.919407 85.23082-69.392974 173.943235-73.659635 266.239645-7.37279 158.276056 39.150881 284.87642 140.970479 382.258691z"  horiz-adv-x="1024" />

    
    <glyph glyph-name="Star" unicode="&#58922;" d="M545.032258 46.905806L208.16929-128 272.516129 242.489806 0 504.865032l376.600774 54.040774L545.032258 896l168.431484-337.094194L1090.064516 504.898065l-272.516129-262.375226L881.895226-128z"  horiz-adv-x="1090" />

    
    <glyph glyph-name="list-write" unicode="&#58923;" d="M0.183138-104.526769c1.299692 12.996923 20.204308 182.547692 29.184 261.907692l240.167385-176.049231L26.767754-124.061538a18.904615 18.904615 0 0 0-26.584616 19.534769zM656.015754 124.061538a36.627692 36.627692 0 0 0 36.785231 36.470154h293.888a36.627692 36.627692 0 0 0 36.78523-36.470154 36.627692 36.627692 0 0 0-36.78523-36.509538H692.840369a36.627692 36.627692 0 0 0-36.785231 36.509538zM809.812677 672.610462l-15.635692-21.110154-275.692308 202.043077 15.596308 21.149538a52.893538 52.893538 0 0 0 73.64923 11.106462l190.897231-139.894154c23.433846-17.171692 28.435692-50.018462 11.185231-73.294769zM476.736985 818.412308L748.372677 619.756308 311.085292 30.72 39.4496 229.415385 476.736985 818.412308zM333.534523 165.533538l294.360615 405.267693a31.074462 31.074462 0 0 1-7.08923 43.559384 31.586462 31.586462 0 0 1-43.835077-7.08923l-294.360616-405.267693a31.074462 31.074462 0 0 1 7.089231-43.559384 31.586462 31.586462 0 0 1 43.835077 7.08923z m653.312-213.582769c20.558769 0 37.218462-17.565538 37.218462-39.384615 0-21.740308-16.659692-39.384615-37.218462-39.384616H391.744985c-20.558769 0-37.218462 17.644308-37.218462 39.384616 0 21.819077 16.659692 39.384615 37.179077 39.384615h595.101538z"  horiz-adv-x="1024" />

    
    <glyph glyph-name="list-user" unicode="&#58924;" d="M240.896 556.324571c0 68.315429-5.595429 172.982857 28.781714 223.232C318.171429 850.358857 394.24 896 479.817143 896c88.137143 0 166.217143-48.420571 214.345143-122.88 31.817143-49.188571 23.332571-132.022857 23.332571-197.485714 0-122.733714-81.554286-232.228571-132.937143-251.465143 1.755429-13.787429-9.362286-22.235429 51.419429-38.509714 179.2-48.091429 307.419429-176.566857 307.419428-327.460572 0-22.089143-2.925714-56.941714-34.011428-58.660571H40.155429c-25.161143 1.645714-23.954286 40.228571-23.954286 58.660571 0 152.649143 131.181714 282.331429 313.636571 329.069714 52.809143 13.531429 44.434286 21.430857 45.202286 36.900572-45.202286 19.931429-134.144 109.421714-134.144 232.155428z m585.472 205.238858V842.569143h303.250286c24.868571-3.803429 37.302857-17.298286 37.302857-40.484572 0-23.222857-12.434286-36.717714-37.302857-40.521142h-303.250286z m0-202.569143V640.036571h433.225143c27.209143-1.974857 40.813714-15.469714 40.813714-40.521142s-13.604571-38.546286-40.813714-40.521143H826.368z m0-202.532572v81.005715h433.225143c22.674286-5.229714 34.011429-18.761143 34.011428-40.484572 0-21.76-11.337143-35.254857-34.011428-40.521143H826.368z"  horiz-adv-x="1316" />

    
    <glyph glyph-name="select" unicode="&#58925;" d="M0 362.811077l133.907692 162.619077 399.241846-328.822154L1209.225846 896l151.433846-146.392615-41.078154-42.456616-32.137846-33.28-666.939077-689.860923-64.866461-78.769231-6.222769 5.12-5.632-5.789538-42.456616 41.078154-16.777846 16.226461-12.839385 12.484923z"  horiz-adv-x="1378" />

    
    <glyph glyph-name="to-star" unicode="&#58926;" d="M586.032432 60.471351l245.040433-128.359783-46.688865 271.221621a110.702703 110.702703 0 0 0 31.993081 98.193297l197.632 191.903136-273.518703 39.576216a110.702703 110.702703 0 0 0-83.331459 60.416L534.666378 840.648649l-122.464864-247.226811a110.702703 110.702703 0 0 0-83.33146-60.416L55.351351 493.429622l197.632-191.903136a110.702703 110.702703 0 0 0 31.993081-98.220972L238.287568-67.888432l245.040432 128.332108a110.702703 110.702703 0 0 0 102.704432 0z m-77.021405-49.068973l-245.040432-128.304432a55.351351 55.351351 0 0 0-80.25946 58.395676l46.716541 271.221621a55.351351 55.351351 0 0 1-15.996541 49.096649L16.799135 453.715027a55.351351 55.351351 0 0 0 30.609297 94.484757l273.518703 39.576216a55.351351 55.351351 0 0 1 41.679568 30.221838l122.464865 247.199135a55.351351 55.351351 0 0 0 99.217297 0l122.464865-247.199135a55.351351 55.351351 0 0 1 41.679567-30.194162l273.491027-39.576217a55.351351 55.351351 0 0 0 30.636973-94.512432l-197.632-191.903135a55.351351 55.351351 0 0 1-15.99654-49.096649L885.621622-58.534054a55.351351 55.351351 0 0 0-80.231784-58.395676l-245.040433 128.304433a55.351351 55.351351 0 0 1-51.338378 0z"  horiz-adv-x="1079" />

    
    <glyph glyph-name="stared" unicode="&#58927;" d="M509.011027 11.402378L263.970595-116.92973a55.351351 55.351351 0 0 0-80.231784 58.451027l46.688865 271.193946a55.351351 55.351351 0 0 1-15.996541 49.096649L16.799135 453.715027a55.351351 55.351351 0 0 0 30.609297 94.484757l273.518703 39.603892a55.351351 55.351351 0 0 1 41.679568 30.194162l122.464865 247.226811a55.351351 55.351351 0 0 0 99.189621 0l122.492541-247.226811a55.351351 55.351351 0 0 1 41.679567-30.194162l273.518703-39.603892a55.296 55.296 0 0 0 30.609297-94.484757l-197.659675-191.903135a55.48973 55.48973 0 0 1-15.996541-49.096649L885.621622-58.478703a55.351351 55.351351 0 0 0-80.231784-58.451027l-245.040433 128.332108a55.212973 55.212973 0 0 1-51.338378 0zM586.060108 60.443676l245.040433-128.332108-46.716541 271.193946a110.730378 110.730378 0 0 0 31.993081 98.220972l197.632 191.930811-273.518703 39.576217a110.619676 110.619676 0 0 0-83.331459 60.416L534.666378 840.648649l-122.464864-247.199135a110.619676 110.619676 0 0 0-83.33146-60.416L55.351351 493.429622l197.659676-191.930811a110.702703 110.702703 0 0 0 31.965405-98.220973L238.287568-67.888432l245.040432 128.332108a110.702703 110.702703 0 0 0 102.732108 0z"  horiz-adv-x="1079" />

    
    <glyph glyph-name="list-opinion" unicode="&#58915;" d="M941.738667 670.682074v-137.898667l119.011555 68.304593v26.43437c0 23.817481-19.26637 43.159704-43.008 43.159704H941.700741z m0 74.600296h76.534518a117.532444 117.532444 0 0 0 118.253037-100.276148h0.682667l-0.644741-0.379259c0.682667-4.740741 1.137778-9.557333 1.21363-14.449778v-639.431111a117.57037 117.57037 0 0 0-33.640297-82.488889 112.526222 112.526222 0 0 0-83.740444-35.271111H117.380741l-2.465185 0.037926A113.47437 113.47437 0 0 0 0-22.376296V645.006222l1.21363-0.758518c3.565037 25.031111 15.132444 48.431407 33.185185 66.522074a117.191111 117.191111 0 0 0 82.981926 34.512592h75.965629v28.709926c-0.151704 32.312889 12.515556 63.336296 35.119408 86.243556A120.111407 120.111407 0 0 0 313.912889 896h505.173333l2.085926-0.530963c31.971556 0 62.65363-12.818963 85.257482-35.574518 22.603852-22.793481 35.309037-53.703111 35.309037-85.902223v-28.709926zM193.34637 670.682074H114.725926A42.970074 42.970074 0 0 1 71.717926 627.484444v-25.637925l121.628444-73.08326v141.842963z m854.091852-713.841778c8.192 7.888593 13.312 18.962963 13.312 31.250963V514.578963l-468.005926-269.349926a73.879704 73.879704 0 0 0-75.39674 0l-442.974815 267.567407v-535.134814c0-13.387852 19.64563-28.937481 46.193778-28.937482h895.544888c12.363852 0 23.210667 3.26163 31.326815 8.116148z m-226.266074 863.194074l-2.123852 0.493037H311.789037c-25.524148 0-46.193778-20.859259-46.193778-46.535111v-288.464592l288.388741-173.397334 313.419852 179.806815V773.499259c0 12.325926-4.892444 24.158815-13.539556 32.919704a46.042074 46.042074 0 0 1-32.692148 13.653333z m-99.972741-150.565926H340.726519a37.167407 37.167407 0 0 0-32.312889 18.962963 38.494815 38.494815 0 0 0 0 37.925926c6.637037 11.719111 18.962963 18.962963 32.312889 18.962963h380.472888c20.631704 0 37.319111-16.990815 37.319112-37.925926 0-20.973037-16.687407-37.925926-37.319112-37.925926z m-151.400296-151.703703H340.423111a36.864 36.864 0 0 0-32.047407 18.962963 38.760296 38.760296 0 0 0 0 37.925926c6.599111 11.719111 18.811259 18.962963 32.047407 18.962963h229.376c20.48 0 37.015704-16.990815 37.015704-37.925926 0-20.973037-16.57363-37.925926-37.015704-37.925926z"  horiz-adv-x="1137" />

    
    <glyph glyph-name="contact-tel" unicode="&#58928;" d="M938.894601 168.011852v53.930667h53.665186c29.620148 0 53.627259 24.158815 53.627259 53.930666V788.138667c0 29.809778-24.007111 53.930667-53.627259 53.930666H268.250453c-29.620148 0-53.627259-24.120889-53.627259-53.930666V747.70963H160.958009V788.138667A107.595852 107.595852 0 0 0 268.288379 896H992.521861A107.595852 107.595852 0 0 0 1099.852231 788.138667V275.911111a107.595852 107.595852 0 0 0-107.33037-107.861333h-53.62726zM107.33075 747.70963h724.309333a107.595852 107.595852 0 0 0 107.33037-107.861334V127.620741a107.595852 107.595852 0 0 0-107.33037-107.861334H433.076527L284.217268-128l-30.189037 147.721481H107.292824A107.595852 107.595852 0 0 0 0.000379 127.620741V639.848296A107.595852 107.595852 0 0 0 107.33075 747.70963z m93.904592-431.407408a80.668444 80.668444 0 0 1 80.478815 80.896c0 44.676741-36.02963 80.896-80.478815 80.896a80.668444 80.668444 0 0 1-80.478815-80.896c0-44.676741 36.02963-80.896 80.478815-80.896z m268.250074 0a80.668444 80.668444 0 0 1 80.478815 80.896c0 44.676741-36.02963 80.896-80.478815 80.896a80.668444 80.668444 0 0 1-80.478815-80.896c0-44.676741 36.02963-80.896 80.478815-80.896z m268.250074 0a80.668444 80.668444 0 0 1 80.478815 80.896c0 44.676741-36.02963 80.896-80.478815 80.896a80.668444 80.668444 0 0 1-80.478814-80.896c0-44.676741 36.02963-80.896 80.478814-80.896z"  horiz-adv-x="1099" />

    
    <glyph glyph-name="news-now" unicode="&#58929;" d="M576-8.192c-34.08 0-67.456 2.304-99.936 6.72-16.896 2.272-111.328-37.152-283.264-118.336-9.28 156.32-20.096 239.424-32.448 249.44C61.056 210.112 0 319.424 0 439.808c0 247.424 257.888 448 576 448s576-200.576 576-448-257.888-448-576-448z m-91.296 70.144c29.92-4.064 60.416-6.112 91.296-6.112 285.824 0 512 175.936 512 384s-226.176 384-512 384c-285.792 0-512-175.936-512-384 0-96.864 48.736-189.184 136.672-260.448 29.312-23.744 40.256-72.608 49.888-201.504 141.088 65.216 202.816 88.288 234.144 84.064zM256 343.808a96 96 0 1 0 0 192 96 96 0 0 0 0-192z m320 0a96 96 0 1 0 0 192 96 96 0 0 0 0-192z m320 0a96.032 96.032 0 0 0 0 192 96.032 96.032 0 0 0 0-192zM1072 711.808m-176 0a176 176 0 1 1 352 0 176 176 0 1 1-352 0Z"  horiz-adv-x="1248" />

    
    <glyph glyph-name="company" unicode="&#58930;" d="M631.296-128V783.232L284.736 660.608V-128H160V708.96L632.64 896 864 708.96V-128h-232.704zM347.328 568.416l195.04 81.536v-120.512l-195.04-39.008v77.984z m0-182.464l195.04 37.472v-98.4l-195.04-17.056V385.92z m0-211.2l195.04 22.144v-100.128H347.328v78.016z m0-215.744l198.112 11.36-3.072-89.344H347.328v77.984z"  horiz-adv-x="1024" />

    
    <glyph glyph-name="cookies" unicode="&#58931;" d="M879.23712 99.555556l-1.137778 163.271111A269.50163 269.50163 0 0 1 1061.926305 518.750815c0 148.821333-119.959704 269.463704-267.908741 269.463704-11.377778 0-22.603852-0.720593-33.754074-2.123852C703.147046 851.702519 612.124824 896 526.108824 896 441.609861 896 358.400379 853.067852 300.942601 786.204444a268.743111 268.743111 0 0 1-32.995555 2.010075C119.922157 788.214519 0.000379 667.572148 0.000379 518.750815a269.50163 269.50163 0 0 1 181.172148-255.051852l-0.910222-76.306963L179.124527 99.555556h700.112593z m0.493037-75.851852l0.379259-51.996445c0-59.012741-45.131852-99.707259-104.865185-99.707259H284.748231c-59.050667 0-106.951111 48.355556-106.951111 107.785481 0 4.93037 0.151704 19.607704 0.455111 43.918223h701.477926z"  horiz-adv-x="1061" />

    
    <glyph glyph-name="p-blood-sugar" unicode="&#58932;" d="M512 384m-512 0a512 512 0 1 1 1024 0 512 512 0 1 1-1024 0ZM512 124.99968c-101.79584 0-184.32 82.52416-184.32 184.32C327.68 377.18016 392.11008 490.82368 520.98048 650.24 637.88032 490.82368 696.32 377.18016 696.32 309.31968c0-101.79584-82.52416-184.32-184.32-184.32zM400.82432 385.52576c-23.10144-83.47648 0.38912-155.06432 69.4272-212.26496l18.18624 21.9648c-60.50816 50.1248-80.20992 110.1824-60.14976 182.70208l-27.46368 7.59808z"  horiz-adv-x="1024" />

    
    <glyph glyph-name="p-uril" unicode="&#58933;" d="M512 384m-512 0a512 512 0 1 1 1024 0 512 512 0 1 1-1024 0ZM512 640c-141.38368 0-256-114.61632-256-256a255.25248 255.25248 0 0 1 19.87584-99.05152l138.40384 138.41408 78.63296-78.6432 92.02688 92.02688-72.98048 72.99072h182.85568v-182.85568l-71.0656 71.07584-130.83648-130.82624-78.63296 78.63296-110.592-110.58176C350.12608 170.2912 426.12736 128 512 128c141.38368 0 256 114.61632 256 256S653.39392 640 512 640z"  horiz-adv-x="1024" />

    
    <glyph glyph-name="p-eat" unicode="&#58934;" d="M512 384m-512 0a512 512 0 1 1 1024 0 512 512 0 1 1-1024 0ZM407.9104 611.50208c-15.19616 21.18656-48.128 45.08672-66.7648 57.73312a8.64256 8.64256 0 0 1-13.4656-7.14752v-557.7728a53.11488 53.11488 0 0 1 53.13536 53.13536l-0.98304 227.38944c26.5216 22.016 69.95968 168.35584 28.07808 226.6624z m288.32768 59.20768c-16.09728 0-29.2352-12.48256-29.2352-27.7504v-83.68128h-35.06176v97.55648c0 7.63904-6.57408 13.8752-14.62272 13.8752-8.0384 0-14.62272-6.23616-14.62272-13.8752v-97.55648h-35.06176v83.68128c0 15.27808-13.13792 27.7504-29.2352 27.7504v-166.87104c0-28.90752 23.31648-52.79744 52.97152-55.67488v-319.04768c0-13.6192 11.74528-24.80128 26.112-24.80128 14.37696 0 26.12224 11.18208 26.12224 24.81152V448.24576c29.48096 3.03104 52.56192 26.85952 52.56192 55.67488v55.43936l0.07168 111.34976z"  horiz-adv-x="1024" />

    
    <glyph glyph-name="p-weight" unicode="&#58935;" d="M512 384m-512 0a512 512 0 1 1 1024 0 512 512 0 1 1-1024 0ZM529.32608 459.99104c7.68-1.62816 15.13472-4.22912 22.14912-7.75168a79.1552 79.1552 0 0 0 29.47072-25.42592l8.48896-12.38016 86.40512 72.704-8.33536 9.63584c-18.176 21.02272-41.85088 38.4-68.48512 50.28864a217.62048 217.62048 0 0 1-89.1904 18.70848 220.09856 220.09856 0 0 1-91.66848-19.83488c-27.26912-12.5952-51.2512-30.95552-69.31456-53.10464l-7.80288-9.60512 87.296-73.41056 8.21248 13.568c11.4688 18.98496 31.65184 32.24576 54.97856 36.84352v34.7136C491.52 507.1872 499.97824 517.12 510.42304 517.12c10.43456 0 18.90304-9.9328 18.90304-22.19008v-34.93888zM292.13696 243.80416v-19.32288c0.02048-27.96544 23.17312-50.6368 51.73248-50.65728h336.26112c28.55936 0.02048 51.712 22.69184 51.73248 50.65728v19.32288a77.02528 77.02528 0 0 0-51.05664-19.33312H343.20384a77.04576 77.04576 0 0 0-51.06688 19.33312z m-24.73984 43.99104A76.1856 76.1856 0 0 0 266.24 301.01504V553.20576c0.0512 42.26048 34.47808 76.50304 76.96384 76.55424h337.60256c42.47552-0.0512 76.91264-34.29376 76.96384-76.55424v-252.18048c0-4.49536-0.39936-8.91904-1.15712-13.21984H757.76v-63.32416c-0.04096-41.96352-34.77504-75.9808-77.62944-76.00128H343.83872c-42.84416 0.04096-77.55776 34.03776-77.59872 75.99104v63.3344h1.15712z"  horiz-adv-x="1024" />

    
    <glyph glyph-name="icon-time" unicode="&#58936;" d="M512 384V679.377455H433.245091v-374.132364h374.132364V384H512z m0-512C229.236364-128 0 101.236364 0 384S229.236364 896 512 896s512-229.236364 512-512-229.236364-512-512-512z"  horiz-adv-x="1024" />

    
    <glyph glyph-name="icon-stars" unicode="&#58937;" d="M492.944696 3.917913l-168.737392-88.375652a89.043478 89.043478 0 0 0-129.024 94.029913l32.055653 186.100869a89.043478 89.043478 0 0 1-25.733566 79.026087l-135.524174 131.606261a89.043478 89.043478 0 0 0 49.285566 151.997218l187.881739 27.158261a89.043478 89.043478 0 0 1 67.049739 48.617739l84.279652 170.162087a89.043478 89.043478 0 0 0 159.565913 0l84.279652-170.162087a89.043478 89.043478 0 0 1 67.049739-48.573218l187.88174-27.158261A89.043478 89.043478 0 0 0 1002.540522 406.26087l-135.524174-131.606261a89.043478 89.043478 0 0 1-25.733565-78.981566l32.055652-186.145391a89.043478 89.043478 0 0 0-129.068522-94.029913l-168.737391 88.375652a89.043478 89.043478 0 0 1-82.587826 0z"  horiz-adv-x="1068" />

    
    <glyph glyph-name="Star_half" unicode="&#58938;" d="M508.106411 4.9152l-196.881067-103.5264a102.4 102.4 0 0 0-148.5824 107.963733l37.5808 219.2384a34.133333 34.133333 0 0 1-9.796267 30.208l-159.300266 155.306667a102.4 102.4 0 0 0 56.763733 174.660267l220.16 31.982933a34.133333 34.133333 0 0 1 25.668267 18.670933l98.440533 199.4752a102.4 102.4 0 0 0 183.637333 0l98.474667-199.4752a34.133333 34.133333 0 0 1 25.7024-18.670933l220.16-31.982933a102.4 102.4 0 0 0 56.7296-174.6944l-159.300267-155.272534a34.133333 34.133333 0 0 1-9.796266-30.208l37.5808-219.2384a102.4 102.4 0 0 0-148.548267-107.963733l-196.949333 103.5264a34.133333 34.133333 0 0 1-31.744 0z m13.653333 72.157867a102.912 102.912 0 0 0 49.902933-11.741867l196.881067-103.492267a34.133333 34.133333 0 0 1 49.527467 35.976534l-37.614934 219.2384a102.4 102.4 0 0 0 29.457067 90.658133l159.300267 155.272533a34.133333 34.133333 0 0 1-18.909867 58.197334l-220.16 32.017066a102.4 102.4 0 0 0-77.073067 55.978667l-98.474666 199.509333a34.133333 34.133333 0 0 1-32.6656 18.978134c4.164267-355.328-0.170667-429.499733-0.170667-750.592z"  horiz-adv-x="1058" />

    
    <glyph glyph-name="Star_off" unicode="&#58939;" d="M507.966179 4.902441l-196.862168-103.516462a102.390171 102.390171 0 0 0-148.568137 107.95337l37.577192 219.217355a34.130057 34.130057 0 0 1-9.795326 30.23923L31.032765 414.053563a102.390171 102.390171 0 0 0 56.758284 174.643501l220.138867 31.979863a34.130057 34.130057 0 0 1 25.665803 18.669141l98.431084 199.456052a102.390171 102.390171 0 0 0 183.619706 0l98.465214-199.456052a34.130057 34.130057 0 0 1 25.699932-18.669141l220.138867-31.979863a102.390171 102.390171 0 0 0 56.724155-174.643501l-159.284976-155.291759a34.130057 34.130057 0 0 1-9.795326-30.2051l37.577193-219.217355a102.390171 102.390171 0 0 0-148.534008-107.95337l-196.930428 103.516462a34.130057 34.130057 0 0 1-31.740953 0z m-31.740953 60.410201a102.390171 102.390171 0 0 0 95.291119 0l196.862168-103.482332a34.130057 34.130057 0 0 1 49.522712 35.97308l-37.611322 219.217355a102.390171 102.390171 0 0 0 29.454239 90.649431l159.284975 155.257628a34.130057 34.130057 0 0 1-18.908051 58.225877l-220.138867 31.979864a102.390171 102.390171 0 0 0-77.065668 55.973293l-98.465214 199.490182a34.130057 34.130057 0 0 1-61.195192 0l-98.431084-199.456052a102.390171 102.390171 0 0 0-77.133929-56.007423l-220.104736-31.979864a34.130057 34.130057 0 0 1-18.908052-58.225877l159.284976-155.291758a102.390171 102.390171 0 0 0 29.454239-90.615301L229.806216-2.19661a34.130057 34.130057 0 0 1 49.488582-35.97308l196.930428 103.482332z"  horiz-adv-x="1058" />

    
    <glyph glyph-name="Star_on" unicode="&#58940;" d="M508.106411 4.9152l-196.881067-103.5264a102.4 102.4 0 0 0-148.5824 107.963733l37.5808 219.2384a34.133333 34.133333 0 0 1-9.796267 30.208l-159.300266 155.306667a102.4 102.4 0 0 0 56.763733 174.660267l220.16 31.982933a34.133333 34.133333 0 0 1 25.668267 18.670933l98.440533 199.4752a102.4 102.4 0 0 0 183.637333 0l98.474667-199.4752a34.133333 34.133333 0 0 1 25.7024-18.670933l220.16-31.982933a102.4 102.4 0 0 0 56.7296-174.6944l-159.300267-155.272534a34.133333 34.133333 0 0 1-9.796266-30.208l37.5808-219.2384a102.4 102.4 0 0 0-148.548267-107.963733l-196.949333 103.5264a34.133333 34.133333 0 0 1-31.744 0z"  horiz-adv-x="1058" />

    


  </font>
</defs>
</svg>
